<svg xmlns="http://www.w3.org/2000/svg" viewBox="0 0 1200 300" width="1200" height="300">
  <defs>
    <clipPath id="rc"><rect width="1200" height="300" rx="14"/></clipPath>
  </defs>
  <g clip-path="url(#rc)">
    <rect width="1200" height="300" fill="#0b0c10"/>
    <rect width="1200" height="300" rx="14" fill="none" stroke="rgba(233,228,218,0.08)" stroke-width="1"/>

    <!-- Title bar -->
    <rect width="1200" height="36" fill="rgba(233,228,218,0.04)"/>
    <circle cx="20" cy="18" r="5" fill="#f43f5e" opacity="0.7"/>
    <circle cx="36" cy="18" r="5" fill="#f59e0b" opacity="0.7"/>
    <circle cx="52" cy="18" r="5" fill="#22c55e" opacity="0.7"/>
    <text x="600" y="23" text-anchor="middle" font-family="JetBrains Mono, monospace" font-size="11" fill="#6d727b">istanbul-navigator — project structure</text>

    <!-- Column 1 -->
    <g font-family="JetBrains Mono, monospace" font-size="12" fill="#9a9d95">
      <text x="40" y="72" fill="#4f4ef1">📁</text><text x="60" y="72" fill="#e9e4da">src/</text>
      <text x="60" y="96" fill="#6d727b">├─</text><text x="80" y="96" fill="#4f4ef1">📁</text><text x="100" y="96">components/</text>
      <text x="80" y="116" fill="#6d727b">│  ├─</text><text x="120" y="116" fill="#4f4ef1">📁</text><text x="140" y="116">map/</text>
      <text x="120" y="136" fill="#6d727b">│  │  └─</text><text x="176" y="136" fill="#2dd4bf">MapView.tsx</text>
      <text x="80" y="156" fill="#6d727b">│  ├─</text><text x="120" y="156" fill="#4f4ef1">📁</text><text x="140" y="156">panels/</text>
      <text x="120" y="176" fill="#6d727b">│  │  ├─</text><text x="176" y="176" fill="#9a9d95">RoutePanel.tsx</text>
      <text x="120" y="196" fill="#6d727b">│  │  ├─</text><text x="176" y="196" fill="#9a9d95">PinsPanel.tsx</text>
      <text x="120" y="216" fill="#6d727b">│  │  ├─</text><text x="176" y="216" fill="#9a9d95">FavoritesPanel.tsx</text>
      <text x="120" y="236" fill="#6d727b">│  │  ├─</text><text x="176" y="236" fill="#9a9d95">NotesPanel.tsx</text>
      <text x="120" y="256" fill="#6d727b">│  │  └─</text><text x="176" y="256" fill="#9a9d95">SettingsPanel.tsx</text>
      <text x="80" y="276" fill="#6d727b">│  └─</text><text x="120" y="276" fill="#4f4ef1">📁</text><text x="140" y="276">ui/</text>
    </g>

    <!-- Divider -->
    <line x1="380" y1="48" x2="380" y2="292" stroke="rgba(233,228,218,0.06)" stroke-width="1"/>

    <!-- Column 2 -->
    <g font-family="JetBrains Mono, monospace" font-size="12" fill="#9a9d95">
      <text x="400" y="72" fill="#6d727b">│     ├─</text><text x="460" y="72" fill="#f59e0b">Icons.tsx</text>
      <text x="400" y="92" fill="#6d727b">│     └─</text><text x="460" y="92" fill="#f59e0b">PlaceSearch.tsx</text>
      <text x="400" y="116" fill="#6d727b">├─</text><text x="420" y="116" fill="#8b5cf6">📁</text><text x="440" y="116">hooks/</text>
      <text x="420" y="136" fill="#6d727b">│  └─</text><text x="460" y="136" fill="#8b5cf6">useAppStore.ts</text>
      <text x="400" y="160" fill="#6d727b">├─</text><text x="420" y="160" fill="#22c55e">📁</text><text x="440" y="160">utils/</text>
      <text x="420" y="180" fill="#6d727b">│  ├─</text><text x="460" y="180" fill="#22c55e">routing.ts</text>
      <text x="420" y="200" fill="#6d727b">│  ├─</text><text x="460" y="200" fill="#22c55e">storage.ts</text>
      <text x="420" y="220" fill="#6d727b">│  ├─</text><text x="460" y="220" fill="#22c55e">geocoder.ts</text>
      <text x="420" y="240" fill="#6d727b">│  └─</text><text x="460" y="240" fill="#22c55e">transitWaypoints.ts</text>
      <text x="400" y="264" fill="#6d727b">├─</text><text x="420" y="264" fill="#f43f5e">📁</text><text x="440" y="264">types/</text>
      <text x="420" y="284" fill="#6d727b">│  └─</text><text x="460" y="284" fill="#f43f5e">index.ts</text>
    </g>

    <!-- Divider -->
    <line x1="740" y1="48" x2="740" y2="292" stroke="rgba(233,228,218,0.06)" stroke-width="1"/>

    <!-- Column 3 -->
    <g font-family="JetBrains Mono, monospace" font-size="12" fill="#9a9d95">
      <text x="760" y="72" fill="#e9e4da">├─</text><text x="780" y="72" fill="#2dd4bf">App.tsx</text>
      <text x="760" y="92" fill="#6d727b">├─</text><text x="780" y="92" fill="#9a9d95">main.tsx</text>
      <text x="760" y="112" fill="#6d727b">└─</text><text x="780" y="112" fill="#9a9d95">index.css</text>

      <text x="760" y="144" fill="#e9e4da">Root files</text>
      <text x="760" y="164" fill="#6d727b">├─</text><text x="780" y="164" fill="#f59e0b">vite.config.ts</text>
      <text x="760" y="184" fill="#6d727b">├─</text><text x="780" y="184" fill="#f59e0b">tailwind.config.js</text>
      <text x="760" y="204" fill="#6d727b">├─</text><text x="780" y="204" fill="#9a9d95">tsconfig.json</text>
      <text x="760" y="224" fill="#6d727b">├─</text><text x="780" y="224" fill="#9a9d95">package.json</text>
      <text x="760" y="244" fill="#6d727b">└─</text><text x="780" y="244" fill="#9a9d95">index.html</text>

      <text x="760" y="276" fill="#e9e4da">CI/CD</text>
      <text x="760" y="292" fill="#6d727b">└─ .github/workflows/</text>
    </g>

    <!-- Divider -->
    <line x1="1000" y1="48" x2="1000" y2="292" stroke="rgba(233,228,218,0.06)" stroke-width="1"/>

    <!-- Column 4: legend -->
    <g font-family="Space Grotesk, sans-serif" font-size="12">
      <text x="1020" y="72" font-family="JetBrains Mono, monospace" font-size="9" fill="#2b3038" letter-spacing="0.15em">LEGEND</text>
      <rect x="1020" y="82" width="8" height="8" rx="2" fill="#2dd4bf"/>
      <text x="1036" y="92" fill="#9a9d95">Map engine</text>
      <rect x="1020" y="102" width="8" height="8" rx="2" fill="#8b5cf6"/>
      <text x="1036" y="112" fill="#9a9d95">State management</text>
      <rect x="1020" y="122" width="8" height="8" rx="2" fill="#22c55e"/>
      <text x="1036" y="132" fill="#9a9d95">Utilities / APIs</text>
      <rect x="1020" y="142" width="8" height="8" rx="2" fill="#f59e0b"/>
      <text x="1036" y="152" fill="#9a9d95">UI components</text>
      <rect x="1020" y="162" width="8" height="8" rx="2" fill="#f43f5e"/>
      <text x="1036" y="172" fill="#9a9d95">Type definitions</text>
      <rect x="1020" y="182" width="8" height="8" rx="2" fill="#4f4ef1"/>
      <text x="1036" y="192" fill="#9a9d95">Panel views</text>

      <line x1="1020" y1="210" x2="1160" y2="210" stroke="rgba(233,228,218,0.06)" stroke-width="1"/>

      <text x="1020" y="228" font-family="JetBrains Mono, monospace" font-size="9" fill="#2b3038" letter-spacing="0.1em">KEY FILES</text>
      <text x="1020" y="248" font-family="JetBrains Mono, monospace" font-size="10" fill="#2dd4bf">MapView.tsx</text>
      <text x="1020" y="263" fill="#6d727b">Leaflet OOP class, OSRM</text>
      <text x="1020" y="278" font-family="JetBrains Mono, monospace" font-size="10" fill="#8b5cf6">useAppStore.ts</text>
      <text x="1020" y="293" fill="#6d727b">Single source of truth</text>
    </g>
  </g>
</svg>
